<svg xmlns="http://www.w3.org/2000/svg" viewBox="0 0 1200 630" width="100%" height="100%">
  <!-- Background gradient -->
  <defs>
    <linearGradient id="bg" x1="0%" y1="0%" x2="100%" y2="100%">
      <stop offset="0%" stop-color="#0a0b10" />
      <stop offset="50%" stop-color="#0f111a" />
      <stop offset="100%" stop-color="#050608" />
    </linearGradient>
    <linearGradient id="cyan-purple" x1="0%" y1="0%" x2="100%" y2="0%">
      <stop offset="0%" stop-color="#00f2fe" />
      <stop offset="100%" stop-color="#4facfe" />
    </linearGradient>
    <linearGradient id="accent-glow" x1="0%" y1="0%" x2="0%" y2="100%">
      <stop offset="0%" stop-color="#ff007f" />
      <stop offset="100%" stop-color="#7f00ff" />
    </linearGradient>
    <filter id="glow" x="-20%" y="-20%" width="140%" height="140%">
      <feGaussianBlur stdDeviation="15" result="blur" />
      <feComposite in="SourceGraphic" in2="blur" operator="over" />
    </filter>
  </defs>

  <!-- Background -->
  <rect width="1200" height="630" fill="url(#bg)" />

  <!-- High-tech abstract mesh -->
  <circle cx="1000" cy="150" r="300" fill="none" stroke="url(#cyan-purple)" stroke-width="1" opacity="0.15" />
  <circle cx="1000" cy="150" r="200" fill="none" stroke="url(#cyan-purple)" stroke-width="2" opacity="0.1" />
  <path d="M 0,315 Q 300,100 600,315 T 1200,315" fill="none" stroke="url(#cyan-purple)" stroke-width="1.5" opacity="0.2" />
  <path d="M 0,315 Q 300,530 600,315 T 1200,315" fill="none" stroke="url(#accent-glow)" stroke-width="1.5" opacity="0.15" />

  <!-- Cyberpunk vertical accent line -->
  <rect x="50" y="80" width="8" height="470" fill="url(#cyan-purple)" rx="4" />
  <rect x="50" y="80" width="8" height="150" fill="url(#accent-glow)" rx="4" filter="url(#glow)" />

  <!-- Badge -->
  <rect x="90" y="80" width="180" height="35" rx="10" fill="#1b1e2e" stroke="url(#cyan-purple)" stroke-width="1" />
  <text x="180" y="102" fill="#00f2fe" font-family="'Outfit', 'Inter', sans-serif" font-size="12" font-weight="800" letter-spacing="2" text-anchor="middle">ACTIVE OPPORTUNITY</text>

  <!-- Title -->
  <text x="90" y="210" fill="#ffffff" font-family="'Outfit', 'Inter', sans-serif" font-size="48" font-weight="900" letter-spacing="-1">
    Stake $GMYLD  &amp; Play PumpCat.FUN - Get Paid Up to $100 for Honest Feedback
  </text>

  <!-- Subtitle / Meta -->
  <text x="90" y="265" fill="#a0aec0" font-family="'Inter', sans-serif" font-size="20" font-weight="500">
    Ecosystem scouting report &amp; strategic roadmap
  </text>

  <!-- Brand logo elements -->
  <g transform="translate(90, 480)">
    <!-- OOBE / Synapse theme logo -->
    <polygon points="0,0 25,-15 50,0 50,30 25,45 0,30" fill="none" stroke="url(#cyan-purple)" stroke-width="2" />
    <polygon points="10,-5 25,-15 40,-5 40,25 25,35 10,25" fill="url(#accent-glow)" opacity="0.7" />
    <text x="70" y="26" fill="#ffffff" font-family="'Outfit', 'Inter', sans-serif" font-size="24" font-weight="800" letter-spacing="1">SYNAPSE <tspan fill="#00f2fe">AIOS</tspan></text>
  </g>

  <!-- Footer context -->
  <text x="1110" y="520" fill="#718096" font-family="'Inter', sans-serif" font-size="14" font-weight="600" text-anchor="end">AGENTIC INTEL &amp; OUTREACH SENTINEL</text>
</svg>